<svg width="24" height="24" viewBox="0 0 24 24" fill="none" xmlns="http://www.w3.org/2000/svg">
<path fill-rule="evenodd" clip-rule="evenodd" d="M2.80401 8.35292C2.52401 10.9559 2.53601 13.9579 2.92601 16.5509C3.03069 17.2478 3.36688 17.8891 3.88043 18.3716C4.39398 18.8542 5.05499 19.1498 5.75701 19.2109L7.26701 19.3409C10.417 19.6149 13.583 19.6149 16.733 19.3409L18.243 19.2109C18.945 19.1498 19.606 18.8542 20.1196 18.3716C20.6331 17.8891 20.9693 17.2478 21.074 16.5509C21.464 13.9579 21.476 10.9559 21.196 8.35292C21.1599 8.05099 21.1192 7.74962 21.074 7.44892C20.9693 6.75207 20.6331 6.11073 20.1196 5.6282C19.606 5.14567 18.945 4.85004 18.243 4.78892L16.733 4.65892C13.5839 4.38518 10.4171 4.38518 7.26801 4.65892L5.75801 4.78892C5.05581 4.84983 4.39457 5.14536 3.88082 5.62791C3.36707 6.11046 3.03074 6.75191 2.92601 7.44892C2.88093 7.74964 2.84025 8.05101 2.80401 8.35292ZM7.39701 6.15292C10.4596 5.88669 13.5395 5.88669 16.602 6.15292L18.112 6.28392C18.4786 6.31593 18.8238 6.47031 19.0921 6.72225C19.3604 6.97418 19.5361 7.30903 19.591 7.67292L19.625 7.90592L14.064 10.9959C13.4326 11.3467 12.7223 11.5308 12 11.5308C11.2777 11.5308 10.5674 11.3467 9.93601 10.9959L4.37501 7.90592L4.40901 7.67292C4.46356 7.30904 4.63904 6.97412 4.90716 6.72214C5.17529 6.47016 5.52045 6.31579 5.88701 6.28392L7.39701 6.15292ZM19.808 9.51992C20.0024 11.7896 19.9295 14.0742 19.591 16.3269C19.5365 16.6908 19.361 17.0257 19.0929 17.2777C18.8247 17.5297 18.4796 17.684 18.113 17.7159L16.603 17.8469C13.5401 18.1132 10.4599 18.1132 7.39701 17.8469L5.88701 17.7159C5.52045 17.684 5.17529 17.5297 4.90716 17.2777C4.63904 17.0257 4.46356 16.6908 4.40901 16.3269C4.07016 14.0743 3.997 11.7896 4.19101 9.51992L9.20701 12.3069C10.0612 12.7815 11.0223 13.0305 11.9995 13.0305C12.9767 13.0305 13.9378 12.7815 14.792 12.3069L19.808 9.51992Z" fill="#666666" fill-opacity="0.4"/>
</svg>
